<?xml version="1.0" encoding="utf-8"?>
<!-- Generator: Adobe Illustrator 22.1.0, SVG Export Plug-In . SVG Version: 6.00 Build 0)  -->
<svg version="1.1" id="Layer_1" xmlns="http://www.w3.org/2000/svg" xmlns:xlink="http://www.w3.org/1999/xlink" x="0px" y="0px"
	 viewBox="0 0 900 400" style="enable-background:new 0 0 900 400;" xml:space="preserve">
<style type="text/css">
	.st0{fill:#92ACB3;}
	.st1{fill:#003349;stroke:#003349;stroke-width:0.5;stroke-miterlimit:10;}
	.st2{font-family:'Lato-Regular';}
	.st3{font-size:44.5088px;}
	.st4{letter-spacing:-2;}
	.st5{fill:#ED8B95;}
	.st6{fill:#003349;stroke:#003349;stroke-width:3;stroke-miterlimit:10;}
</style>
<g>
	<path class="st0" d="M75.2,163.6c-5.8,0-10.3-1.6-13.5-4.9c-3.1-3.3-4.7-8-4.7-14.1V99.3H48c-0.8,0-1.4-0.2-2-0.7
		c-0.5-0.5-0.8-1.2-0.8-2.2v-5.2l12.1-1.5l3-22.9c0.1-0.7,0.5-1.3,1-1.8c0.5-0.5,1.2-0.7,2-0.7H70v25.5h21.4v9.4H70v44.5
		c0,3.1,0.8,5.4,2.3,6.9c1.5,1.5,3.5,2.3,5.8,2.3c1.4,0,2.5-0.2,3.5-0.5c1-0.4,1.9-0.8,2.6-1.2c0.7-0.4,1.4-0.8,1.9-1.2
		c0.5-0.4,1-0.5,1.4-0.5c0.7,0,1.3,0.4,1.8,1.2l3.8,6.2c-2.2,2.1-4.9,3.7-8.1,4.9C81.8,163,78.5,163.6,75.2,163.6z"/>
	<path class="st0" d="M164.6,152.1c-1.6,2-3.5,3.6-5.8,5.1c-2.2,1.4-4.6,2.6-7.2,3.5c-2.6,0.9-5.2,1.6-7.9,2.1
		c-2.7,0.5-5.4,0.7-8.1,0.7c-5.1,0-9.8-0.9-14.1-2.6c-4.3-1.7-8-4.3-11.2-7.6c-3.1-3.3-5.6-7.5-7.3-12.4c-1.8-4.9-2.6-10.6-2.6-17
		c0-5.2,0.8-10,2.4-14.5c1.6-4.5,3.9-8.4,6.8-11.7c3-3.3,6.6-5.9,10.9-7.8c4.3-1.9,9.1-2.8,14.5-2.8c4.4,0,8.5,0.7,12.3,2.2
		c3.8,1.5,7,3.6,9.8,6.4c2.8,2.8,4.9,6.3,6.5,10.4c1.6,4.1,2.3,8.8,2.3,14.1c0,2-0.2,3.4-0.7,4.1c-0.4,0.7-1.3,1-2.5,1h-49.5
		c0.1,4.7,0.8,8.8,1.9,12.2c1.1,3.5,2.7,6.4,4.8,8.7c2,2.3,4.5,4,7.3,5.2c2.8,1.1,6,1.7,9.5,1.7c3.3,0,6.1-0.4,8.4-1.1
		c2.4-0.8,4.4-1.6,6.1-2.4c1.7-0.9,3.1-1.7,4.3-2.4c1.1-0.8,2.1-1.1,3-1.1c1.1,0,1.9,0.4,2.5,1.2L164.6,152.1z M154.1,117.3
		c0-3-0.4-5.8-1.3-8.3c-0.9-2.5-2.1-4.7-3.7-6.5c-1.6-1.8-3.6-3.2-6-4.2c-2.3-1-5-1.5-8-1.5c-6.2,0-11.2,1.8-14.8,5.4
		c-3.6,3.6-5.9,8.7-6.8,15.1H154.1z"/>
	<path class="st0" d="M233.2,101.5c-0.4,0.5-0.8,1-1.2,1.2c-0.4,0.3-0.9,0.4-1.6,0.4c-0.7,0-1.5-0.3-2.4-0.9c-0.9-0.6-2-1.3-3.3-2
		c-1.3-0.7-2.9-1.4-4.8-2c-1.9-0.6-4.2-0.9-6.9-0.9c-3.7,0-6.9,0.6-9.7,1.9c-2.8,1.3-5.1,3.2-7,5.6c-1.9,2.4-3.3,5.4-4.2,8.8
		c-1,3.5-1.4,7.3-1.4,11.6c0,4.5,0.5,8.5,1.5,12c1,3.5,2.5,6.4,4.4,8.8c1.9,2.4,4.1,4.2,6.8,5.4c2.7,1.2,5.6,1.9,9,1.9
		c3.2,0,5.8-0.4,7.8-1.1c2-0.8,3.7-1.6,5.1-2.5c1.3-0.9,2.5-1.8,3.4-2.5c0.9-0.8,1.8-1.1,2.7-1.1c1.1,0,1.9,0.4,2.5,1.2l3.7,4.8
		c-1.6,2-3.4,3.7-5.5,5.1c-2,1.4-4.3,2.6-6.6,3.5c-2.4,1-4.8,1.6-7.4,2.1c-2.6,0.4-5.2,0.7-7.9,0.7c-4.6,0-8.9-0.9-12.9-2.6
		c-4-1.7-7.4-4.2-10.3-7.4c-2.9-3.2-5.2-7.2-6.9-12c-1.7-4.7-2.5-10.1-2.5-16.2c0-5.5,0.8-10.6,2.3-15.3c1.5-4.7,3.8-8.7,6.7-12.1
		c2.9-3.4,6.6-6,10.9-7.9c4.3-1.9,9.3-2.9,14.9-2.9c5.2,0,9.8,0.8,13.8,2.5c4,1.7,7.5,4.1,10.6,7.1L233.2,101.5z"/>
	<path class="st0" d="M264.6,98.2c3.2-3.4,6.7-6,10.5-8c3.8-2,8.3-3,13.3-3c4,0,7.6,0.7,10.7,2c3.1,1.3,5.7,3.2,7.8,5.7
		c2.1,2.5,3.6,5.4,4.7,8.9c1.1,3.5,1.6,7.3,1.6,11.5v47.2h-13.1v-47.2c0-5.6-1.3-10-3.8-13.1c-2.6-3.1-6.4-4.6-11.7-4.6
		c-3.9,0-7.4,0.9-10.8,2.8c-3.3,1.9-6.4,4.4-9.2,7.5v54.5h-13.1V54.7h13.1V98.2z"/>
</g>
<text transform="matrix(1 2.988559e-03 -2.988559e-03 1 402.039 349.3158)" class="st1 st2 st3 st4">2019</text>
<g>
	<path class="st5" d="M62.2,247c0,11.6,3.4,17.4,10.2,17.4c2.6,0,5.3-0.9,8-2.7c2.7-1.8,5.1-4.3,7.1-7.5c2.5,0.6,3.8,1.8,3.8,3.9
		c-2.9,5.1-6.5,8.7-10.7,10.8c-4.2,2.2-8.5,3.2-12.7,3.2c-5.7,0-10.5-2.1-14.5-6.3c-4-4.2-6-10.3-6-18.3c0-10.2,2.8-19,8.4-26.2
		c5.6-7.3,13.2-10.9,22.8-10.9c5.4,0,9.4,1.3,12.1,3.9c2.7,2.6,4.1,5.7,4.1,9.3c0,3.6-1.1,6.7-3.3,9.3c-2.2,2.6-5,4-8.4,4
		c-1.7,0-3.3-0.3-5-1c1-1.2,2-3,2.9-5.6c0.9-2.5,1.4-4.9,1.4-7c0-4.2-1.8-6.4-5.5-6.4c-4.3,0-7.8,3.2-10.5,9.5
		C63.6,232.7,62.2,239.5,62.2,247z"/>
	<path class="st5" d="M124.3,216.7c3.5-4.3,6.8-6.4,9.8-6.4c3,0,5.3,1.1,6.8,3.4c1.5,2.3,2.3,5.2,2.3,8.8c0,3.6-1.1,6.9-3.2,9.9
		c-2.1,3-5,4.5-8.7,4.5c-1,0-2.1-0.3-3.4-0.8c2.2-2.7,3.2-6,3.2-9.8c0-2.2-0.9-3.3-2.7-3.3c-1.3,0-2.7,0.9-4.3,2.8
		c-1.5,1.8-3,4.4-4.4,7.6c-1.4,3.2-2.6,7.4-3.5,12.4c-0.9,5-1.4,10.4-1.4,16.1c0,0.7,0.2,3.6,0.5,8.9c-2.2,0.1-3.6,0.2-4.3,0.2
		c-4,0-6.8-0.7-8.6-2.1c-1.7-1.4-2.6-3.7-2.6-6.9c0-1.4,0.7-6.7,2.2-16.1c1.5-9.3,2.2-16.7,2.2-22.3c0-5.5-0.6-10.6-1.8-15.3
		c5.1,1.6,8.6,3.9,10.6,6.8c2,3,3,6.4,3,10.3c0,3.9-0.3,7.7-0.9,11.3C117.8,227.6,120.8,221,124.3,216.7z"/>
	<path class="st5" d="M165,244.9c-3.3,0-6.6-0.4-9.8-1.1c-0.1,0.7-0.1,1.8-0.1,3.2c0,5.8,1.1,10.1,3.2,13c2.2,2.9,4.7,4.4,7.7,4.4
		c3,0,5.8-0.9,8.6-2.7c2.7-1.8,5.1-4.3,7.1-7.5c2.5,0.6,3.8,1.8,3.8,3.9c-6.1,9.4-14,14.1-23.7,14.1c-5.8,0-10.9-2.2-15.3-6.7
		c-4.4-4.5-6.6-10.7-6.6-18.7c0-6,1.1-11.7,3.4-17c2.3-5.4,5.9-9.9,10.9-13.7c5-3.7,10.5-5.6,16.6-5.6c6.1,0,10.5,1.4,13.4,4.2
		c2.8,2.8,4.3,6.4,4.3,10.9c0,6.5-2.3,11.4-6.8,14.6C177.2,243.3,171.7,244.9,165,244.9z M169.4,216.8c-3.5,0-6.5,2.2-9,6.6
		c-2.4,4.4-4,9.7-4.8,16h1.6c6,0,10.5-1.6,13.4-4.7c2.9-3.1,4.3-6.9,4.3-11.3c0-1.8-0.5-3.4-1.4-4.6
		C172.6,217.5,171.2,216.8,169.4,216.8z"/>
	<path class="st5" d="M206.2,250.8c0,3.3,0.6,5.9,1.8,8c1.2,2.1,2.9,3.1,5.2,3.1c3.3,0,6.4-1.9,9.3-5.7c3-3.8,5.3-8.7,7.1-14.7
		c1.8-6,2.7-11.7,2.7-17c0-5.4-0.2-9.7-0.6-13.1c2.1-0.1,3.5-0.2,4.4-0.2c3.5,0,6.2,0.7,8,2c1.8,1.3,2.7,3.7,2.7,7.1
		c0,1.3-0.8,6.7-2.5,16.1c-1.7,9.4-2.5,17-2.5,22.6c0,5.7,1.1,10.7,3.2,15.1c-5.2-0.9-9-2.8-11.5-5.8c-2.4-3-3.6-7.2-3.6-12.8
		c0-1,0.1-2.8,0.4-5.6c-1.9,6.6-5.2,11.9-10,16c-4.8,4-9.5,6-14.1,6c-4.6,0-8.3-1.7-11.2-5.2c-2.8-3.4-4.2-8.3-4.2-14.7
		c0-6.3,1.1-12.5,3.4-18.4c2.3-5.9,5.6-11,10.2-15.1c4.5-4.1,9.6-6.2,15.1-6.2c3.2,0,6.5,0.8,9.8,2.3c-7,2.5-12.6,7.4-16.8,14.8
		C208.3,236.6,206.2,243.8,206.2,250.8z"/>
	<path class="st5" d="M273.4,234.6c-1.1,6.2-2,11.7-2.6,16.5c-0.6,4.8-0.9,9.7-0.9,14.7s0.5,8.6,1.5,10.7c-5.4-1.4-9-3.5-11.1-6.4
		c-2-2.9-3-7-3-12.3c0-4.7,0.7-11,2.2-19.1c1.5-8.1,2.4-13.6,2.8-16.4c-3.6,0.6-7.5,1.8-11.6,3.6c-0.1-1.5-0.2-2.7-0.2-3.4
		c0-3.7,1.1-6.2,3.3-7.6c2.2-1.4,5.4-2.1,9.6-2.1c0.5-5.2,0.7-9,0.7-11.3c0-2.3,0-4.2-0.1-5.7c0-1.5-0.1-2.7-0.1-3.4
		c4.6,0.5,7.9,1.9,10,4.1c2.1,2.3,3.1,5.5,3.1,9.6c0,1.7-0.2,4-0.5,7c5.8-0.1,10.1-1.3,12.8-3.4c0.1,1.4,0.2,2.4,0.2,3.1
		c0,3.3-0.6,5.6-1.8,6.9c-1.2,1.3-3.2,1.9-5.9,1.9c-2.8,0-4.9,0-6.4-0.1C275.2,224,274.5,228.4,273.4,234.6z"/>
	<path class="st5" d="M311.1,244.9c-3.3,0-6.6-0.4-9.8-1.1c-0.1,0.7-0.1,1.8-0.1,3.2c0,5.8,1.1,10.1,3.2,13c2.2,2.9,4.7,4.4,7.7,4.4
		c3,0,5.8-0.9,8.6-2.7c2.7-1.8,5.1-4.3,7.1-7.5c2.5,0.6,3.8,1.8,3.8,3.9c-6.1,9.4-14,14.1-23.7,14.1c-5.8,0-10.9-2.2-15.3-6.7
		c-4.4-4.5-6.6-10.7-6.6-18.7c0-6,1.1-11.7,3.4-17c2.3-5.4,5.9-9.9,10.9-13.7c5-3.7,10.5-5.6,16.6-5.6c6.1,0,10.5,1.4,13.4,4.2
		c2.8,2.8,4.3,6.4,4.3,10.9c0,6.5-2.3,11.4-6.8,14.6C323.3,243.3,317.7,244.9,311.1,244.9z M315.5,216.8c-3.5,0-6.5,2.2-9,6.6
		c-2.4,4.4-4,9.7-4.8,16h1.6c6,0,10.5-1.6,13.4-4.7c2.9-3.1,4.3-6.9,4.3-11.3c0-1.8-0.5-3.4-1.4-4.6
		C318.7,217.5,317.3,216.8,315.5,216.8z"/>
</g>
<g>
	<path class="st5" d="M459.4,178.1l-25.6-0.3c-9.1,0-19.9,0.3-32.6,0.8c-4.1,30.6-6.1,53.5-6.1,68.6c0,15.1,1.2,25.6,3.7,31.5
		c-15.1-3.9-25.5-9.1-31-15.6c-5.5-6.5-8.3-15.5-8.3-27.1c0-6.8,1.9-23.9,5.6-51.5c0.2-0.7,0.3-1.2,0.3-1.3
		c-5.3,1.4-9.6,2.9-12.8,4.3c-0.4-3.9-0.5-6.9-0.5-8.8c0-12.5,5.7-20.1,17.1-23c3.7-31.7,5.6-57.5,5.6-77.4c0-5.3-0.4-12.6-1.1-21.9
		c17.8,0.7,29,3.9,33.6,9.6c2.3,3.2,3.8,6.3,4.4,9.2c0.6,2.9,0.9,7.7,0.9,14.2c0,6.5-1.2,18.1-3.7,34.7c-2.5,16.6-3.9,26.6-4.3,29.8
		c29.6,0,55-0.2,76.4-0.5c3.7-30.6,5.6-55.6,5.6-75c0-5.3-0.4-12.6-1.1-21.9c17.8,0.7,28.9,3.9,33.4,9.6c2.5,3.2,4,6.3,4.7,9.2
		c0.6,2.9,0.9,7.7,0.9,14.2c0,6.5-3,30.2-8.9,71c-6,40.9-8.9,69.3-8.9,85.5c0,16.1,1.2,27.1,3.7,33c-15.1-3.9-25.4-9.1-30.8-15.5
		c-5.4-6.4-8.1-14.6-8.1-24.6c0-10,1.8-28,5.3-54.2l1.6-11.5C474.5,176.5,468.1,178.1,459.4,178.1z"/>
	<path class="st5" d="M637.3,181.3l-25.6-0.3c-7.8,0-13.8,0.1-17.9,0.3c-2.7,23.7-4.1,44-4.3,60.9c41.8,0,72.9-3.4,93.2-10.1
		c-1.6,13.2-5.6,23.4-12,30.7c-6.4,7.3-14.4,10.9-24,10.9c-2.9,0-10.8-0.8-23.9-2.3c-13.1-1.5-26.9-2.3-41.5-2.3
		c-14.6,0-28.8,1.5-42.7,4.5c2-8.4,6.2-15.2,12.8-20.6v-1.1c0-9.6,2.5-31.5,7.5-65.7c-4.5,1.6-8.3,3-11.5,4.3
		c-0.4-3.9-0.5-6.9-0.5-8.8c0-11.9,5.2-19.5,15.8-22.7c3.2-23.5,5.3-44.7,6.4-63.6c-6.6-0.4-10.8-1.9-12.6-4.5
		c-1.8-2.7-2.7-7.9-2.7-15.8c0.5-8,1.2-13.3,2.1-15.8c19.9,2.7,42,4,66.1,4c24.1,0,47.4-2.1,69.8-6.4c-2.5,18.7-13.9,29.9-34.2,33.6
		c-11.9,2.3-29.6,3.8-53.1,4.5c-0.2,2-2.8,22.6-7.7,62c10.7,0.4,18.1,0.5,22.2,0.5c16.9,0,28.9-2.9,36.1-8.8c0.4,3.6,0.5,6.2,0.5,8
		C655.4,173.2,649.4,181.3,637.3,181.3z"/>
	<path class="st5" d="M706.4,269.7c-4.5-3.6-6.7-9.5-6.7-17.9c0-8.4,3-33.7,8.9-76c6-42.3,8.9-72.5,8.9-90.5
		c0-18.1-1.2-29.9-3.7-35.4c18,1.4,29.9,8.5,35.8,21.1c12.8-7.1,27.4-10.7,43.7-10.7c16.3,0,29.6,4.7,40.1,14
		c10.4,9.3,15.6,20.2,15.6,32.4s-4.2,24.5-12.6,36.7c-8.4,12.2-20.8,21.4-37.4,27.6l3.5,10.4c6.4,19.9,15.7,39.7,27.8,59.2
		c12.1,19.5,22,32.8,29.6,39.9c-6.6,1.8-13.1,2.7-19.6,2.7c-6.5,0-13-2.1-19.6-6.3c-6.6-4.2-12.1-8.8-16.4-13.8
		c-4.4-5-9.2-12.9-14.6-23.8c-5.3-10.9-9.2-19.3-11.5-25.4c-2.3-6.1-4.9-12.7-7.6-20c-2.8-7.3-4.2-11.2-4.4-11.7
		c-0.2-0.5-0.4-1.2-0.8-2c-0.4-0.8-0.6-1.6-0.8-2.3c-3.9,0-7.7,0-11.5,0l-0.8-12.3c22.6-0.9,39.4-9,50.5-24.3
		c6.1-8.5,9.1-17.3,9.1-26.2c0-3.4-0.4-6.7-1.1-9.9c-3-11.6-10.2-18.8-21.6-21.6c-3.2-0.9-7.7-1.3-13.4-1.3
		c-5.7,0-13.3,1.9-22.7,5.6c0,6.8-2.5,28.9-7.6,66.4c-5.1,37.5-7.6,68.8-7.6,93.9c0,11.2,0.5,19.9,1.6,26.2
		c-5.7,0.4-9.4,0.5-11.2,0.5C718.2,275.1,710.9,273.3,706.4,269.7z"/>
</g>
<line class="st6" x1="40" y1="335.9" x2="338.8" y2="335.9"/>
<line class="st6" x1="560.1" y1="336.5" x2="859" y2="336.5"/>
</svg>
